<mxfile host="app.diagrams.net" modified="2022-07-19T08:23:35.242Z" agent="5.0 (Windows NT 10.0; Win64; x64) AppleWebKit/537.36 (KHTML, like Gecko) Chrome/102.0.5005.115 Safari/537.36 OPR/88.0.4412.85" etag="teyVtcADRlBjMXFfw91v" version="20.1.1" type="github">
  <diagram id="C5RBs43oDa-KdzZeNtuy" name="Page-1">
    <mxGraphModel dx="2281" dy="804" grid="1" gridSize="10" guides="1" tooltips="1" connect="1" arrows="1" fold="1" page="1" pageScale="1" pageWidth="827" pageHeight="1169" math="0" shadow="0">
      <root>
        <mxCell id="WIyWlLk6GJQsqaUBKTNV-0" />
        <mxCell id="WIyWlLk6GJQsqaUBKTNV-1" parent="WIyWlLk6GJQsqaUBKTNV-0" />
        <mxCell id="2AgUhtWW7UTTX_ueYewH-0" value="" style="rounded=0;whiteSpace=wrap;html=1;" vertex="1" parent="WIyWlLk6GJQsqaUBKTNV-1">
          <mxGeometry x="50" y="10" width="200" height="40" as="geometry" />
        </mxCell>
        <mxCell id="2AgUhtWW7UTTX_ueYewH-1" value="&lt;font style=&quot;font-size: 17px;&quot;&gt;Animals&lt;/font&gt;" style="text;html=1;strokeColor=none;fillColor=none;align=center;verticalAlign=middle;whiteSpace=wrap;rounded=0;fontStyle=3" vertex="1" parent="WIyWlLk6GJQsqaUBKTNV-1">
          <mxGeometry x="120" y="15" width="60" height="30" as="geometry" />
        </mxCell>
        <mxCell id="2AgUhtWW7UTTX_ueYewH-2" value="-specialName;&lt;br&gt;-weight;&lt;br&gt;-age;" style="rounded=0;whiteSpace=wrap;html=1;fontSize=17;align=left;" vertex="1" parent="WIyWlLk6GJQsqaUBKTNV-1">
          <mxGeometry x="50" y="50" width="200" height="60" as="geometry" />
        </mxCell>
        <mxCell id="2AgUhtWW7UTTX_ueYewH-4" value="+getDosage()&lt;br&gt;+getFeedSchedule()" style="rounded=0;whiteSpace=wrap;html=1;fontSize=17;align=left;" vertex="1" parent="WIyWlLk6GJQsqaUBKTNV-1">
          <mxGeometry x="50" y="110" width="200" height="40" as="geometry" />
        </mxCell>
        <mxCell id="2AgUhtWW7UTTX_ueYewH-8" style="edgeStyle=orthogonalEdgeStyle;rounded=0;orthogonalLoop=1;jettySize=auto;html=1;exitX=0.5;exitY=0;exitDx=0;exitDy=0;fontSize=17;" edge="1" parent="WIyWlLk6GJQsqaUBKTNV-1" source="2AgUhtWW7UTTX_ueYewH-5" target="2AgUhtWW7UTTX_ueYewH-4">
          <mxGeometry relative="1" as="geometry">
            <Array as="points">
              <mxPoint x="-170" y="230" />
              <mxPoint x="150" y="230" />
            </Array>
          </mxGeometry>
        </mxCell>
        <mxCell id="2AgUhtWW7UTTX_ueYewH-5" value="Horses" style="rounded=1;whiteSpace=wrap;html=1;fontSize=17;arcSize=0;" vertex="1" parent="WIyWlLk6GJQsqaUBKTNV-1">
          <mxGeometry x="-270" y="310" width="200" height="60" as="geometry" />
        </mxCell>
        <mxCell id="2AgUhtWW7UTTX_ueYewH-6" value="Felines" style="rounded=1;whiteSpace=wrap;html=1;fontSize=17;arcSize=0;" vertex="1" parent="WIyWlLk6GJQsqaUBKTNV-1">
          <mxGeometry x="50" y="310" width="200" height="60" as="geometry" />
        </mxCell>
        <mxCell id="2AgUhtWW7UTTX_ueYewH-7" value="Rodents" style="rounded=1;whiteSpace=wrap;html=1;fontSize=17;arcSize=0;" vertex="1" parent="WIyWlLk6GJQsqaUBKTNV-1">
          <mxGeometry x="390" y="310" width="200" height="60" as="geometry" />
        </mxCell>
        <mxCell id="2AgUhtWW7UTTX_ueYewH-12" value="" style="edgeStyle=orthogonalEdgeStyle;rounded=0;orthogonalLoop=1;jettySize=auto;html=1;exitX=0.5;exitY=0;exitDx=0;exitDy=0;fontSize=17;endArrow=none;startArrow=none;" edge="1" parent="WIyWlLk6GJQsqaUBKTNV-1">
          <mxGeometry relative="1" as="geometry">
            <mxPoint x="149.88152625152634" y="157.75" as="targetPoint" />
            <mxPoint x="145" y="160" as="sourcePoint" />
            <Array as="points" />
          </mxGeometry>
        </mxCell>
        <mxCell id="2AgUhtWW7UTTX_ueYewH-17" value="" style="edgeStyle=orthogonalEdgeStyle;rounded=0;orthogonalLoop=1;jettySize=auto;html=1;fontSize=17;endArrow=none;" edge="1" parent="WIyWlLk6GJQsqaUBKTNV-1">
          <mxGeometry relative="1" as="geometry">
            <mxPoint x="150" y="170" as="targetPoint" />
            <mxPoint x="500" y="310" as="sourcePoint" />
            <Array as="points">
              <mxPoint x="500" y="310" />
              <mxPoint x="500" y="230" />
              <mxPoint x="150" y="230" />
            </Array>
          </mxGeometry>
        </mxCell>
        <mxCell id="2AgUhtWW7UTTX_ueYewH-20" value="" style="rounded=1;whiteSpace=wrap;html=1;fontSize=17;arcSize=0;" vertex="1" parent="WIyWlLk6GJQsqaUBKTNV-1">
          <mxGeometry x="50" y="370" width="200" height="30" as="geometry" />
        </mxCell>
        <mxCell id="2AgUhtWW7UTTX_ueYewH-21" value="" style="rounded=1;whiteSpace=wrap;html=1;fontSize=17;arcSize=0;" vertex="1" parent="WIyWlLk6GJQsqaUBKTNV-1">
          <mxGeometry x="390" y="370" width="200" height="30" as="geometry" />
        </mxCell>
        <mxCell id="2AgUhtWW7UTTX_ueYewH-22" value="" style="rounded=1;whiteSpace=wrap;html=1;fontSize=17;arcSize=0;" vertex="1" parent="WIyWlLk6GJQsqaUBKTNV-1">
          <mxGeometry x="-270" y="370" width="200" height="30" as="geometry" />
        </mxCell>
        <mxCell id="2AgUhtWW7UTTX_ueYewH-23" value="&lt;span style=&quot;&quot;&gt;+getDosage(horse)&lt;/span&gt;&lt;br style=&quot;&quot;&gt;&lt;div style=&quot;&quot;&gt;&lt;span style=&quot;background-color: initial;&quot;&gt;+getFeedSchedule(horse)&lt;/span&gt;&lt;/div&gt;" style="rounded=1;whiteSpace=wrap;html=1;fontSize=17;arcSize=0;align=left;" vertex="1" parent="WIyWlLk6GJQsqaUBKTNV-1">
          <mxGeometry x="-270" y="400" width="200" height="60" as="geometry" />
        </mxCell>
        <mxCell id="2AgUhtWW7UTTX_ueYewH-24" value="&lt;span style=&quot;&quot;&gt;+getDosage(feline)&lt;/span&gt;&lt;br style=&quot;&quot;&gt;&lt;span style=&quot;&quot;&gt;+getFeedSchedule(feline)&lt;/span&gt;" style="rounded=1;whiteSpace=wrap;html=1;fontSize=17;arcSize=0;align=left;" vertex="1" parent="WIyWlLk6GJQsqaUBKTNV-1">
          <mxGeometry x="50" y="400" width="200" height="60" as="geometry" />
        </mxCell>
        <mxCell id="2AgUhtWW7UTTX_ueYewH-25" value="&lt;span style=&quot;&quot;&gt;+getDosage(rodent)&lt;/span&gt;&lt;br style=&quot;&quot;&gt;&lt;span style=&quot;&quot;&gt;+getFeedSchedule(rodent)&lt;/span&gt;" style="rounded=1;whiteSpace=wrap;html=1;fontSize=17;arcSize=0;align=left;" vertex="1" parent="WIyWlLk6GJQsqaUBKTNV-1">
          <mxGeometry x="390" y="400" width="200" height="60" as="geometry" />
        </mxCell>
        <mxCell id="2AgUhtWW7UTTX_ueYewH-31" value="" style="endArrow=classic;html=1;rounded=0;fontSize=17;exitX=0.5;exitY=0;exitDx=0;exitDy=0;entryX=0.5;entryY=1;entryDx=0;entryDy=0;" edge="1" parent="WIyWlLk6GJQsqaUBKTNV-1" source="2AgUhtWW7UTTX_ueYewH-6" target="2AgUhtWW7UTTX_ueYewH-4">
          <mxGeometry relative="1" as="geometry">
            <mxPoint x="140" y="260" as="sourcePoint" />
            <mxPoint x="240" y="260" as="targetPoint" />
          </mxGeometry>
        </mxCell>
        <mxCell id="2AgUhtWW7UTTX_ueYewH-32" value="Extends" style="edgeLabel;resizable=0;html=1;align=center;verticalAlign=middle;fontSize=17;" connectable="0" vertex="1" parent="2AgUhtWW7UTTX_ueYewH-31">
          <mxGeometry relative="1" as="geometry">
            <mxPoint y="-40" as="offset" />
          </mxGeometry>
        </mxCell>
        <mxCell id="2AgUhtWW7UTTX_ueYewH-59" value="Horses" style="rounded=0;whiteSpace=wrap;html=1;fontSize=17;" vertex="1" parent="WIyWlLk6GJQsqaUBKTNV-1">
          <mxGeometry x="-270" y="490" width="140" height="40" as="geometry" />
        </mxCell>
        <mxCell id="2AgUhtWW7UTTX_ueYewH-60" value="" style="rounded=0;whiteSpace=wrap;html=1;fontSize=17;" vertex="1" parent="WIyWlLk6GJQsqaUBKTNV-1">
          <mxGeometry x="-270" y="530" width="140" height="40" as="geometry" />
        </mxCell>
        <mxCell id="2AgUhtWW7UTTX_ueYewH-61" value="" style="rounded=0;whiteSpace=wrap;html=1;fontSize=17;" vertex="1" parent="WIyWlLk6GJQsqaUBKTNV-1">
          <mxGeometry x="-270" y="570" width="140" height="40" as="geometry" />
        </mxCell>
        <mxCell id="2AgUhtWW7UTTX_ueYewH-62" value="Zebras" style="rounded=0;whiteSpace=wrap;html=1;fontSize=17;" vertex="1" parent="WIyWlLk6GJQsqaUBKTNV-1">
          <mxGeometry x="-270" y="650" width="140" height="40" as="geometry" />
        </mxCell>
        <mxCell id="2AgUhtWW7UTTX_ueYewH-63" value="" style="rounded=0;whiteSpace=wrap;html=1;fontSize=17;" vertex="1" parent="WIyWlLk6GJQsqaUBKTNV-1">
          <mxGeometry x="-270" y="690" width="140" height="40" as="geometry" />
        </mxCell>
        <mxCell id="2AgUhtWW7UTTX_ueYewH-64" value="" style="rounded=0;whiteSpace=wrap;html=1;fontSize=17;" vertex="1" parent="WIyWlLk6GJQsqaUBKTNV-1">
          <mxGeometry x="-270" y="730" width="140" height="40" as="geometry" />
        </mxCell>
        <mxCell id="2AgUhtWW7UTTX_ueYewH-65" value="Donkeys" style="rounded=0;whiteSpace=wrap;html=1;fontSize=17;" vertex="1" parent="WIyWlLk6GJQsqaUBKTNV-1">
          <mxGeometry x="-270" y="810" width="140" height="40" as="geometry" />
        </mxCell>
        <mxCell id="2AgUhtWW7UTTX_ueYewH-66" value="" style="rounded=0;whiteSpace=wrap;html=1;fontSize=17;" vertex="1" parent="WIyWlLk6GJQsqaUBKTNV-1">
          <mxGeometry x="-270" y="850" width="140" height="40" as="geometry" />
        </mxCell>
        <mxCell id="2AgUhtWW7UTTX_ueYewH-67" value="" style="rounded=0;whiteSpace=wrap;html=1;fontSize=17;" vertex="1" parent="WIyWlLk6GJQsqaUBKTNV-1">
          <mxGeometry x="-270" y="890" width="140" height="40" as="geometry" />
        </mxCell>
        <mxCell id="2AgUhtWW7UTTX_ueYewH-68" value="Tigers" style="rounded=0;whiteSpace=wrap;html=1;fontSize=17;" vertex="1" parent="WIyWlLk6GJQsqaUBKTNV-1">
          <mxGeometry x="50" y="490" width="140" height="40" as="geometry" />
        </mxCell>
        <mxCell id="2AgUhtWW7UTTX_ueYewH-69" value="" style="rounded=0;whiteSpace=wrap;html=1;fontSize=17;" vertex="1" parent="WIyWlLk6GJQsqaUBKTNV-1">
          <mxGeometry x="50" y="530" width="140" height="40" as="geometry" />
        </mxCell>
        <mxCell id="2AgUhtWW7UTTX_ueYewH-70" value="" style="rounded=0;whiteSpace=wrap;html=1;fontSize=17;" vertex="1" parent="WIyWlLk6GJQsqaUBKTNV-1">
          <mxGeometry x="50" y="570" width="140" height="40" as="geometry" />
        </mxCell>
        <mxCell id="2AgUhtWW7UTTX_ueYewH-71" value="Lions" style="rounded=0;whiteSpace=wrap;html=1;fontSize=17;" vertex="1" parent="WIyWlLk6GJQsqaUBKTNV-1">
          <mxGeometry x="50" y="650" width="140" height="40" as="geometry" />
        </mxCell>
        <mxCell id="2AgUhtWW7UTTX_ueYewH-72" value="" style="rounded=0;whiteSpace=wrap;html=1;fontSize=17;" vertex="1" parent="WIyWlLk6GJQsqaUBKTNV-1">
          <mxGeometry x="50" y="690" width="140" height="40" as="geometry" />
        </mxCell>
        <mxCell id="2AgUhtWW7UTTX_ueYewH-73" value="" style="rounded=0;whiteSpace=wrap;html=1;fontSize=17;" vertex="1" parent="WIyWlLk6GJQsqaUBKTNV-1">
          <mxGeometry x="50" y="730" width="140" height="40" as="geometry" />
        </mxCell>
        <mxCell id="2AgUhtWW7UTTX_ueYewH-77" value="" style="edgeStyle=orthogonalEdgeStyle;rounded=0;orthogonalLoop=1;jettySize=auto;html=1;exitX=0.5;exitY=0;exitDx=0;exitDy=0;fontSize=17;endArrow=none;startArrow=none;" edge="1" source="2AgUhtWW7UTTX_ueYewH-78" parent="WIyWlLk6GJQsqaUBKTNV-1">
          <mxGeometry relative="1" as="geometry">
            <mxPoint x="149.88152625152634" y="157.75" as="targetPoint" />
            <mxPoint x="428" y="309" as="sourcePoint" />
            <Array as="points">
              <mxPoint x="150" y="160" />
            </Array>
          </mxGeometry>
        </mxCell>
        <mxCell id="2AgUhtWW7UTTX_ueYewH-78" value="" style="triangle;whiteSpace=wrap;html=1;fontSize=17;rotation=-90;" vertex="1" parent="WIyWlLk6GJQsqaUBKTNV-1">
          <mxGeometry x="140" y="150" width="20" height="20" as="geometry" />
        </mxCell>
        <mxCell id="2AgUhtWW7UTTX_ueYewH-85" value="" style="endArrow=classic;html=1;rounded=0;fontSize=17;entryX=0.9;entryY=1;entryDx=0;entryDy=0;entryPerimeter=0;" edge="1" parent="WIyWlLk6GJQsqaUBKTNV-1" target="2AgUhtWW7UTTX_ueYewH-23">
          <mxGeometry relative="1" as="geometry">
            <mxPoint x="-90" y="890" as="sourcePoint" />
            <mxPoint x="-90" y="480" as="targetPoint" />
          </mxGeometry>
        </mxCell>
        <mxCell id="2AgUhtWW7UTTX_ueYewH-86" value="Extends" style="edgeLabel;resizable=0;html=1;align=center;verticalAlign=middle;fontSize=17;" connectable="0" vertex="1" parent="2AgUhtWW7UTTX_ueYewH-85">
          <mxGeometry relative="1" as="geometry" />
        </mxCell>
        <mxCell id="2AgUhtWW7UTTX_ueYewH-87" value="" style="edgeStyle=orthogonalEdgeStyle;rounded=0;orthogonalLoop=1;jettySize=auto;html=1;exitX=0.5;exitY=0;exitDx=0;exitDy=0;fontSize=17;endArrow=none;startArrow=none;" edge="1" parent="WIyWlLk6GJQsqaUBKTNV-1">
          <mxGeometry relative="1" as="geometry">
            <mxPoint x="-89.11847374847366" y="468.75" as="targetPoint" />
            <mxPoint x="-94" y="471" as="sourcePoint" />
            <Array as="points">
              <mxPoint x="-89" y="471" />
            </Array>
          </mxGeometry>
        </mxCell>
        <mxCell id="2AgUhtWW7UTTX_ueYewH-88" value="" style="triangle;whiteSpace=wrap;html=1;fontSize=17;rotation=-90;" vertex="1" parent="WIyWlLk6GJQsqaUBKTNV-1">
          <mxGeometry x="-100" y="461" width="20" height="20" as="geometry" />
        </mxCell>
        <mxCell id="2AgUhtWW7UTTX_ueYewH-90" value="" style="endArrow=none;html=1;rounded=0;fontSize=17;exitX=1;exitY=0;exitDx=0;exitDy=0;" edge="1" parent="WIyWlLk6GJQsqaUBKTNV-1" source="2AgUhtWW7UTTX_ueYewH-61">
          <mxGeometry width="50" height="50" relative="1" as="geometry">
            <mxPoint x="-90" y="640" as="sourcePoint" />
            <mxPoint x="-90" y="570" as="targetPoint" />
          </mxGeometry>
        </mxCell>
        <mxCell id="2AgUhtWW7UTTX_ueYewH-91" value="" style="endArrow=none;html=1;rounded=0;fontSize=17;exitX=1;exitY=0;exitDx=0;exitDy=0;" edge="1" parent="WIyWlLk6GJQsqaUBKTNV-1" source="2AgUhtWW7UTTX_ueYewH-67">
          <mxGeometry width="50" height="50" relative="1" as="geometry">
            <mxPoint x="-90" y="640" as="sourcePoint" />
            <mxPoint x="-90" y="890" as="targetPoint" />
          </mxGeometry>
        </mxCell>
        <mxCell id="2AgUhtWW7UTTX_ueYewH-92" value="" style="endArrow=none;html=1;rounded=0;fontSize=17;exitX=1;exitY=0.75;exitDx=0;exitDy=0;" edge="1" parent="WIyWlLk6GJQsqaUBKTNV-1" source="2AgUhtWW7UTTX_ueYewH-63">
          <mxGeometry width="50" height="50" relative="1" as="geometry">
            <mxPoint x="-90" y="640" as="sourcePoint" />
            <mxPoint x="-90" y="720" as="targetPoint" />
          </mxGeometry>
        </mxCell>
        <mxCell id="2AgUhtWW7UTTX_ueYewH-93" value="" style="endArrow=classic;html=1;rounded=0;fontSize=17;entryX=0.9;entryY=1;entryDx=0;entryDy=0;entryPerimeter=0;" edge="1" parent="WIyWlLk6GJQsqaUBKTNV-1">
          <mxGeometry relative="1" as="geometry">
            <mxPoint x="229" y="730" as="sourcePoint" />
            <mxPoint x="229" y="460" as="targetPoint" />
          </mxGeometry>
        </mxCell>
        <mxCell id="2AgUhtWW7UTTX_ueYewH-94" value="Extends" style="edgeLabel;resizable=0;html=1;align=center;verticalAlign=middle;fontSize=17;" connectable="0" vertex="1" parent="2AgUhtWW7UTTX_ueYewH-93">
          <mxGeometry relative="1" as="geometry" />
        </mxCell>
        <mxCell id="2AgUhtWW7UTTX_ueYewH-95" value="" style="edgeStyle=orthogonalEdgeStyle;rounded=0;orthogonalLoop=1;jettySize=auto;html=1;exitX=0.5;exitY=0;exitDx=0;exitDy=0;fontSize=17;endArrow=none;startArrow=none;" edge="1" parent="WIyWlLk6GJQsqaUBKTNV-1">
          <mxGeometry relative="1" as="geometry">
            <mxPoint x="229.88152625152634" y="468.75" as="targetPoint" />
            <mxPoint x="225" y="471" as="sourcePoint" />
            <Array as="points">
              <mxPoint x="230" y="471" />
            </Array>
          </mxGeometry>
        </mxCell>
        <mxCell id="2AgUhtWW7UTTX_ueYewH-96" value="" style="triangle;whiteSpace=wrap;html=1;fontSize=17;rotation=-90;" vertex="1" parent="WIyWlLk6GJQsqaUBKTNV-1">
          <mxGeometry x="219" y="461" width="20" height="20" as="geometry" />
        </mxCell>
        <mxCell id="2AgUhtWW7UTTX_ueYewH-97" value="" style="endArrow=none;html=1;rounded=0;fontSize=17;exitX=1;exitY=0;exitDx=0;exitDy=0;" edge="1" parent="WIyWlLk6GJQsqaUBKTNV-1" source="2AgUhtWW7UTTX_ueYewH-73">
          <mxGeometry width="50" height="50" relative="1" as="geometry">
            <mxPoint x="-90" y="640" as="sourcePoint" />
            <mxPoint x="230" y="730" as="targetPoint" />
          </mxGeometry>
        </mxCell>
        <mxCell id="2AgUhtWW7UTTX_ueYewH-98" value="" style="endArrow=none;html=1;rounded=0;fontSize=17;" edge="1" parent="WIyWlLk6GJQsqaUBKTNV-1" source="2AgUhtWW7UTTX_ueYewH-69">
          <mxGeometry width="50" height="50" relative="1" as="geometry">
            <mxPoint x="-90" y="640" as="sourcePoint" />
            <mxPoint x="230" y="550" as="targetPoint" />
          </mxGeometry>
        </mxCell>
        <mxCell id="2AgUhtWW7UTTX_ueYewH-99" value="Rats" style="rounded=0;whiteSpace=wrap;html=1;fontSize=17;" vertex="1" parent="WIyWlLk6GJQsqaUBKTNV-1">
          <mxGeometry x="401" y="491" width="140" height="40" as="geometry" />
        </mxCell>
        <mxCell id="2AgUhtWW7UTTX_ueYewH-100" value="" style="rounded=0;whiteSpace=wrap;html=1;fontSize=17;" vertex="1" parent="WIyWlLk6GJQsqaUBKTNV-1">
          <mxGeometry x="401" y="531" width="140" height="40" as="geometry" />
        </mxCell>
        <mxCell id="2AgUhtWW7UTTX_ueYewH-101" value="" style="rounded=0;whiteSpace=wrap;html=1;fontSize=17;" vertex="1" parent="WIyWlLk6GJQsqaUBKTNV-1">
          <mxGeometry x="401" y="571" width="140" height="40" as="geometry" />
        </mxCell>
        <mxCell id="2AgUhtWW7UTTX_ueYewH-102" value="Beavers" style="rounded=0;whiteSpace=wrap;html=1;fontSize=17;" vertex="1" parent="WIyWlLk6GJQsqaUBKTNV-1">
          <mxGeometry x="401" y="651" width="140" height="40" as="geometry" />
        </mxCell>
        <mxCell id="2AgUhtWW7UTTX_ueYewH-103" value="" style="rounded=0;whiteSpace=wrap;html=1;fontSize=17;" vertex="1" parent="WIyWlLk6GJQsqaUBKTNV-1">
          <mxGeometry x="401" y="691" width="140" height="40" as="geometry" />
        </mxCell>
        <mxCell id="2AgUhtWW7UTTX_ueYewH-104" value="" style="rounded=0;whiteSpace=wrap;html=1;fontSize=17;" vertex="1" parent="WIyWlLk6GJQsqaUBKTNV-1">
          <mxGeometry x="401" y="731" width="140" height="40" as="geometry" />
        </mxCell>
        <mxCell id="2AgUhtWW7UTTX_ueYewH-105" value="" style="endArrow=classic;html=1;rounded=0;fontSize=17;entryX=0.9;entryY=1;entryDx=0;entryDy=0;entryPerimeter=0;" edge="1" parent="WIyWlLk6GJQsqaUBKTNV-1">
          <mxGeometry relative="1" as="geometry">
            <mxPoint x="580" y="731" as="sourcePoint" />
            <mxPoint x="580" y="461" as="targetPoint" />
          </mxGeometry>
        </mxCell>
        <mxCell id="2AgUhtWW7UTTX_ueYewH-106" value="Extends" style="edgeLabel;resizable=0;html=1;align=center;verticalAlign=middle;fontSize=17;" connectable="0" vertex="1" parent="2AgUhtWW7UTTX_ueYewH-105">
          <mxGeometry relative="1" as="geometry" />
        </mxCell>
        <mxCell id="2AgUhtWW7UTTX_ueYewH-107" value="" style="edgeStyle=orthogonalEdgeStyle;rounded=0;orthogonalLoop=1;jettySize=auto;html=1;exitX=0.5;exitY=0;exitDx=0;exitDy=0;fontSize=17;endArrow=none;startArrow=none;" edge="1" parent="WIyWlLk6GJQsqaUBKTNV-1">
          <mxGeometry relative="1" as="geometry">
            <mxPoint x="580.8815262515263" y="469.75" as="targetPoint" />
            <mxPoint x="576" y="472" as="sourcePoint" />
            <Array as="points">
              <mxPoint x="581" y="472" />
            </Array>
          </mxGeometry>
        </mxCell>
        <mxCell id="2AgUhtWW7UTTX_ueYewH-108" value="" style="triangle;whiteSpace=wrap;html=1;fontSize=17;rotation=-90;" vertex="1" parent="WIyWlLk6GJQsqaUBKTNV-1">
          <mxGeometry x="570" y="462" width="20" height="20" as="geometry" />
        </mxCell>
        <mxCell id="2AgUhtWW7UTTX_ueYewH-109" value="" style="endArrow=none;html=1;rounded=0;fontSize=17;exitX=1;exitY=0;exitDx=0;exitDy=0;" edge="1" source="2AgUhtWW7UTTX_ueYewH-104" parent="WIyWlLk6GJQsqaUBKTNV-1">
          <mxGeometry width="50" height="50" relative="1" as="geometry">
            <mxPoint x="261" y="641" as="sourcePoint" />
            <mxPoint x="581" y="731" as="targetPoint" />
          </mxGeometry>
        </mxCell>
        <mxCell id="2AgUhtWW7UTTX_ueYewH-110" value="" style="endArrow=none;html=1;rounded=0;fontSize=17;" edge="1" source="2AgUhtWW7UTTX_ueYewH-100" parent="WIyWlLk6GJQsqaUBKTNV-1">
          <mxGeometry width="50" height="50" relative="1" as="geometry">
            <mxPoint x="261" y="641" as="sourcePoint" />
            <mxPoint x="581" y="551" as="targetPoint" />
          </mxGeometry>
        </mxCell>
      </root>
    </mxGraphModel>
  </diagram>
</mxfile>
